<?xml version="1.0" encoding="UTF-8"?>
<svg xmlns="http://www.w3.org/2000/svg" id="Layer_1" data-name="Layer 1" viewBox="0 0 200 39">
  <defs>
    <style>.cls-1,.cls-3{fill:#fff;}.cls-2{fill:#2ab04b;}.cls-3{font-size:8.77px;font-family:SVN-ProductSans, SVN-Product Sans;letter-spacing:0.36em;}.cls-4{letter-spacing:0.37em;}.cls-5{letter-spacing:0.35em;}.cls-6{letter-spacing:0.36em;}.cls-7{letter-spacing:0.36em;}.cls-8{letter-spacing:0.36em;}.cls-9{letter-spacing:0.35em;}.cls-10{letter-spacing:0.36em;}.cls-11{letter-spacing:0.35em;}</style>
  </defs>
  <path class="cls-1" d="M47.14,23a3.14,3.14,0,0,1-2.32-1,3.3,3.3,0,0,1-1-2.37v-7a.59.59,0,0,1,.17-.42.55.55,0,0,1,.4-.18h1.78a.59.59,0,0,1,.41.18.63.63,0,0,1,.17.42v7.29a.34.34,0,0,0,.34.34h11a.52.52,0,0,1,.4.18.54.54,0,0,1,.17.41V22.4a.58.58,0,0,1-.17.41.52.52,0,0,1-.4.18Z"></path>
  <path class="cls-1" d="M73.08,23a.53.53,0,0,1-.4-.18.59.59,0,0,1-.17-.42V19.72h-9v2.67a.59.59,0,0,1-.17.42A.55.55,0,0,1,63,23H61.19a.56.56,0,0,1-.42-.18.63.63,0,0,1-.16-.42v-7a3.29,3.29,0,0,1,1-2.36,3.11,3.11,0,0,1,2.31-1h8.3a3.11,3.11,0,0,1,2.31,1,3.25,3.25,0,0,1,1,2.36v7a.59.59,0,0,1-.17.42.52.52,0,0,1-.41.18Zm-.57-6V15.1a.34.34,0,0,0-.34-.34h-8.3a.31.31,0,0,0-.24.1.34.34,0,0,0-.09.24V17Z"></path>
  <path class="cls-1" d="M77.93,23a.56.56,0,0,1-.4-.17.6.6,0,0,1-.18-.43V12.63a.58.58,0,0,1,.17-.41.61.61,0,0,1,.41-.18h11a3.13,3.13,0,0,1,2.31,1,3.29,3.29,0,0,1,1,2.36v1a3.31,3.31,0,0,1-1,2.38,3.16,3.16,0,0,1-2.31,1H80.29v2.67a.59.59,0,0,1-.17.42.56.56,0,0,1-.42.18Zm11-6a.3.3,0,0,0,.23-.1.35.35,0,0,0,.1-.25V15.1a.31.31,0,0,0-.1-.24.29.29,0,0,0-.23-.1H80.29V17Z"></path>
  <path class="cls-1" d="M100.62,23a.58.58,0,0,1-.41-.17.63.63,0,0,1-.17-.43V14.76H94.67a.58.58,0,0,1-.41-.17.63.63,0,0,1-.17-.42V12.64a.62.62,0,0,1,.16-.41.6.6,0,0,1,.42-.19h13.67a.58.58,0,0,1,.41.18.59.59,0,0,1,.17.42v1.53a.61.61,0,0,1-.17.42.57.57,0,0,1-.41.17H103v7.63a.59.59,0,0,1-.17.42.53.53,0,0,1-.4.18Z"></path>
  <path class="cls-1" d="M114.1,23a3.13,3.13,0,0,1-2.31-1,3.27,3.27,0,0,1-1-2.37V15.39a3.27,3.27,0,0,1,1-2.37,3.13,3.13,0,0,1,2.31-1h8.3a3.11,3.11,0,0,1,2.31,1,3.27,3.27,0,0,1,1,2.37v4.25a3.27,3.27,0,0,1-1,2.37,3.11,3.11,0,0,1-2.31,1Zm0-8.23a.31.31,0,0,0-.24.1.34.34,0,0,0-.1.24v4.83a.34.34,0,0,0,.1.24.31.31,0,0,0,.24.1h8.3a.28.28,0,0,0,.23-.1.31.31,0,0,0,.1-.24V15.1a.33.33,0,0,0-.1-.24.28.28,0,0,0-.23-.1Z"></path>
  <path class="cls-1" d="M128.15,23a.55.55,0,0,1-.41-.18.63.63,0,0,1-.16-.42V12.63a.62.62,0,0,1,.16-.41.59.59,0,0,1,.41-.18h11a3.11,3.11,0,0,1,2.3,1,3.29,3.29,0,0,1,1,2.36v1a3.31,3.31,0,0,1-1,2.38,3.14,3.14,0,0,1-2.3,1h-8.64v2.67a.59.59,0,0,1-.17.42.56.56,0,0,1-.42.18Zm11-6a.28.28,0,0,0,.22-.1.35.35,0,0,0,.1-.25V15.1a.31.31,0,0,0-.1-.24.27.27,0,0,0-.22-.1h-8.64V17Z"></path>
  <path class="cls-1" d="M159,23.21a.56.56,0,0,1-.42-.18.59.59,0,0,1-.17-.41V15.13a.35.35,0,0,0-.1-.26.33.33,0,0,0-.25-.1h-8.53a.33.33,0,0,0-.26.11.33.33,0,0,0-.1.25v7.49A.63.63,0,0,1,149,23a.58.58,0,0,1-.41.17H146.8a.59.59,0,0,1-.42-.17.63.63,0,0,1-.17-.42v-7.2a3.36,3.36,0,0,1,1-2.42,3.2,3.2,0,0,1,2.37-1h8.53a3.18,3.18,0,0,1,2.36,1,3.36,3.36,0,0,1,1,2.42v7.2a.56.56,0,0,1-.18.42.55.55,0,0,1-.41.17Z"></path>
  <path class="cls-1" d="M184,23.21a3.2,3.2,0,0,1-2.37-1,3.38,3.38,0,0,1-1-2.42v-7.2a.58.58,0,0,1,.17-.41.57.57,0,0,1,.41-.18H183a.58.58,0,0,1,.41.17.6.6,0,0,1,.17.42v7.49a.31.31,0,0,0,.11.26.31.31,0,0,0,.25.11H187V12.58a.63.63,0,0,1,.17-.42.57.57,0,0,1,.41-.17h1.82a.58.58,0,0,1,.41.17.63.63,0,0,1,.17.42v7.86h3.06a.34.34,0,0,0,.25-.11.33.33,0,0,0,.11-.26V12.58a.59.59,0,0,1,.16-.4A.58.58,0,0,1,194,12h1.83a.61.61,0,0,1,.37.14.6.6,0,0,1,.21.45v7.2a3.34,3.34,0,0,1-1,2.42,3.18,3.18,0,0,1-2.36,1Z"></path>
  <path class="cls-1" d="M167.05,23.07a3.17,3.17,0,0,1-2.36-1,3.31,3.31,0,0,1-1-2.42V15.28a3.31,3.31,0,0,1,1-2.42,3.17,3.17,0,0,1,2.36-1h1.76v2.76h-1.76a.31.31,0,0,0-.25.11.33.33,0,0,0-.11.26v5a.33.33,0,0,0,.11.26.31.31,0,0,0,.25.11h8.53a.31.31,0,0,0,.25-.11.35.35,0,0,0,.11-.26V15a.35.35,0,0,0-.11-.26.31.31,0,0,0-.25-.11h-2.07V11.86h2.07a3.15,3.15,0,0,1,2.36,1,3.34,3.34,0,0,1,1,2.42v4.37a3.34,3.34,0,0,1-1,2.42,3.15,3.15,0,0,1-2.36,1Z"></path>
  <rect class="cls-2" x="167.57" y="12.93" width="7.17" height="2.91" rx="1.38" transform="translate(185.54 -156.76) rotate(90)"></rect>
  <path class="cls-2" d="M28.14,30.75a1.45,1.45,0,0,1-.83-.24l-11.65-8V18.85l10.09,6.74V17.64l3.67-1.13V29.75A1.15,1.15,0,0,1,28.14,30.75Z"></path>
  <path class="cls-1" d="M10.2,11.68a1.13,1.13,0,0,1,1.26-1,1.48,1.48,0,0,1,.81.23l11.51,7.77v3.82l-10-6.66v8L10.2,24.87Z"></path>
  <path class="cls-2" d="M19.81,39A18.37,18.37,0,0,1,16.13,2.63l.52-.1v4l-.33.09a14.41,14.41,0,1,0,7,0L23,6.56v-4l.53.1A18.37,18.37,0,0,1,19.81,39Z"></path>
  <rect class="cls-2" x="17.92" y="0.58" width="3.78" height="9.79" rx="1.79"></rect>
  <text class="cls-3" transform="translate(43.87 36.25)">uy <tspan class="cls-4" x="20.53" y="0">t</tspan><tspan x="26.83" y="0">ín </tspan><tspan class="cls-5" x="44.92" y="0">l</tspan><tspan class="cls-6" x="49.82" y="0">à g</tspan><tspan class="cls-7" x="70.75" y="0">i</tspan><tspan class="cls-6" x="75.8" y="0">á trị </tspan><tspan class="cls-8" x="111.3" y="0">c</tspan><tspan class="cls-9" x="118.99" y="0">ố</tspan><tspan class="cls-10" x="126.93" y="0">t </tspan><tspan class="cls-7" x="138.28" y="0">l</tspan><tspan class="cls-11" x="143.18" y="0">õ</tspan><tspan class="cls-6" x="151.16" y="0">i</tspan></text>
</svg>
